<mxfile host="app.diagrams.net" modified="2024-03-20T00:11:57.745Z" agent="Mozilla/5.0 (Macintosh; Intel Mac OS X 10_15_7) AppleWebKit/537.36 (KHTML, like Gecko) Chrome/122.0.0.0 Safari/537.36" etag="1sg9bZiDhE-I1fy7sS77" version="24.0.7" type="github">
  <diagram name="Page-1" id="CbihS8RWMfCkyPCEIJT7">
    <mxGraphModel dx="1434" dy="822" grid="1" gridSize="10" guides="1" tooltips="1" connect="1" arrows="1" fold="1" page="1" pageScale="1" pageWidth="827" pageHeight="1169" math="0" shadow="0">
      <root>
        <mxCell id="0" />
        <mxCell id="1" parent="0" />
        <mxCell id="soZgtZPzy2yuuwHxE616-3" value="" style="edgeStyle=orthogonalEdgeStyle;rounded=0;orthogonalLoop=1;jettySize=auto;html=1;" edge="1" parent="1" source="soZgtZPzy2yuuwHxE616-1" target="soZgtZPzy2yuuwHxE616-2">
          <mxGeometry relative="1" as="geometry" />
        </mxCell>
        <mxCell id="soZgtZPzy2yuuwHxE616-9" value="" style="edgeStyle=orthogonalEdgeStyle;rounded=0;orthogonalLoop=1;jettySize=auto;html=1;" edge="1" parent="1" source="soZgtZPzy2yuuwHxE616-1">
          <mxGeometry relative="1" as="geometry">
            <mxPoint x="240" y="225" as="targetPoint" />
          </mxGeometry>
        </mxCell>
        <mxCell id="soZgtZPzy2yuuwHxE616-11" value="" style="edgeStyle=orthogonalEdgeStyle;rounded=0;orthogonalLoop=1;jettySize=auto;html=1;" edge="1" parent="1" source="soZgtZPzy2yuuwHxE616-1" target="soZgtZPzy2yuuwHxE616-10">
          <mxGeometry relative="1" as="geometry" />
        </mxCell>
        <mxCell id="soZgtZPzy2yuuwHxE616-1" value="" style="rounded=0;whiteSpace=wrap;html=1;" vertex="1" parent="1">
          <mxGeometry x="220" y="290" width="40" height="30" as="geometry" />
        </mxCell>
        <mxCell id="soZgtZPzy2yuuwHxE616-5" value="" style="edgeStyle=orthogonalEdgeStyle;rounded=0;orthogonalLoop=1;jettySize=auto;html=1;" edge="1" parent="1" source="soZgtZPzy2yuuwHxE616-2" target="soZgtZPzy2yuuwHxE616-4">
          <mxGeometry relative="1" as="geometry" />
        </mxCell>
        <mxCell id="soZgtZPzy2yuuwHxE616-13" value="" style="edgeStyle=orthogonalEdgeStyle;rounded=0;orthogonalLoop=1;jettySize=auto;html=1;" edge="1" parent="1" source="soZgtZPzy2yuuwHxE616-2" target="soZgtZPzy2yuuwHxE616-12">
          <mxGeometry relative="1" as="geometry" />
        </mxCell>
        <mxCell id="soZgtZPzy2yuuwHxE616-2" value="" style="rounded=0;whiteSpace=wrap;html=1;" vertex="1" parent="1">
          <mxGeometry x="340" y="290" width="40" height="30" as="geometry" />
        </mxCell>
        <mxCell id="soZgtZPzy2yuuwHxE616-7" value="" style="edgeStyle=orthogonalEdgeStyle;rounded=0;orthogonalLoop=1;jettySize=auto;html=1;" edge="1" parent="1" source="soZgtZPzy2yuuwHxE616-4" target="soZgtZPzy2yuuwHxE616-6">
          <mxGeometry relative="1" as="geometry" />
        </mxCell>
        <mxCell id="soZgtZPzy2yuuwHxE616-15" value="" style="edgeStyle=orthogonalEdgeStyle;rounded=0;orthogonalLoop=1;jettySize=auto;html=1;" edge="1" parent="1" source="soZgtZPzy2yuuwHxE616-4" target="soZgtZPzy2yuuwHxE616-14">
          <mxGeometry relative="1" as="geometry" />
        </mxCell>
        <mxCell id="soZgtZPzy2yuuwHxE616-4" value="" style="rounded=0;whiteSpace=wrap;html=1;" vertex="1" parent="1">
          <mxGeometry x="460" y="290" width="40" height="30" as="geometry" />
        </mxCell>
        <mxCell id="soZgtZPzy2yuuwHxE616-17" value="" style="edgeStyle=orthogonalEdgeStyle;rounded=0;orthogonalLoop=1;jettySize=auto;html=1;" edge="1" parent="1" source="soZgtZPzy2yuuwHxE616-6" target="soZgtZPzy2yuuwHxE616-16">
          <mxGeometry relative="1" as="geometry" />
        </mxCell>
        <mxCell id="soZgtZPzy2yuuwHxE616-6" value="" style="rounded=0;whiteSpace=wrap;html=1;" vertex="1" parent="1">
          <mxGeometry x="580" y="290" width="40" height="30" as="geometry" />
        </mxCell>
        <mxCell id="soZgtZPzy2yuuwHxE616-10" value="Y1" style="rounded=0;whiteSpace=wrap;html=1;" vertex="1" parent="1">
          <mxGeometry x="220" y="180" width="40" height="30" as="geometry" />
        </mxCell>
        <mxCell id="soZgtZPzy2yuuwHxE616-12" value="Y1" style="rounded=0;whiteSpace=wrap;html=1;" vertex="1" parent="1">
          <mxGeometry x="340" y="180" width="40" height="30" as="geometry" />
        </mxCell>
        <mxCell id="soZgtZPzy2yuuwHxE616-14" value="Y2" style="rounded=0;whiteSpace=wrap;html=1;" vertex="1" parent="1">
          <mxGeometry x="460" y="180" width="40" height="30" as="geometry" />
        </mxCell>
        <mxCell id="soZgtZPzy2yuuwHxE616-16" value="Y4" style="rounded=0;whiteSpace=wrap;html=1;" vertex="1" parent="1">
          <mxGeometry x="580" y="180" width="40" height="30" as="geometry" />
        </mxCell>
        <mxCell id="soZgtZPzy2yuuwHxE616-27" style="edgeStyle=orthogonalEdgeStyle;rounded=0;orthogonalLoop=1;jettySize=auto;html=1;exitX=0.5;exitY=0;exitDx=0;exitDy=0;entryX=0.5;entryY=1;entryDx=0;entryDy=0;" edge="1" parent="1" source="soZgtZPzy2yuuwHxE616-18" target="soZgtZPzy2yuuwHxE616-1">
          <mxGeometry relative="1" as="geometry" />
        </mxCell>
        <mxCell id="soZgtZPzy2yuuwHxE616-18" value="X0" style="rounded=0;whiteSpace=wrap;html=1;glass=0;" vertex="1" parent="1">
          <mxGeometry x="220" y="400" width="40" height="30" as="geometry" />
        </mxCell>
        <mxCell id="soZgtZPzy2yuuwHxE616-28" style="edgeStyle=orthogonalEdgeStyle;rounded=0;orthogonalLoop=1;jettySize=auto;html=1;exitX=0.5;exitY=0;exitDx=0;exitDy=0;entryX=0.5;entryY=1;entryDx=0;entryDy=0;" edge="1" parent="1" source="soZgtZPzy2yuuwHxE616-20" target="soZgtZPzy2yuuwHxE616-2">
          <mxGeometry relative="1" as="geometry" />
        </mxCell>
        <mxCell id="soZgtZPzy2yuuwHxE616-20" value="X2" style="rounded=0;whiteSpace=wrap;html=1;" vertex="1" parent="1">
          <mxGeometry x="340" y="400" width="40" height="30" as="geometry" />
        </mxCell>
        <mxCell id="soZgtZPzy2yuuwHxE616-29" style="edgeStyle=orthogonalEdgeStyle;rounded=0;orthogonalLoop=1;jettySize=auto;html=1;exitX=0.5;exitY=0;exitDx=0;exitDy=0;entryX=0.5;entryY=1;entryDx=0;entryDy=0;" edge="1" parent="1" source="soZgtZPzy2yuuwHxE616-22" target="soZgtZPzy2yuuwHxE616-4">
          <mxGeometry relative="1" as="geometry" />
        </mxCell>
        <mxCell id="soZgtZPzy2yuuwHxE616-22" value="X3" style="rounded=0;whiteSpace=wrap;html=1;" vertex="1" parent="1">
          <mxGeometry x="460" y="400" width="40" height="30" as="geometry" />
        </mxCell>
        <mxCell id="soZgtZPzy2yuuwHxE616-30" style="edgeStyle=orthogonalEdgeStyle;rounded=0;orthogonalLoop=1;jettySize=auto;html=1;exitX=0.5;exitY=0;exitDx=0;exitDy=0;entryX=0.5;entryY=1;entryDx=0;entryDy=0;" edge="1" parent="1" source="soZgtZPzy2yuuwHxE616-24" target="soZgtZPzy2yuuwHxE616-6">
          <mxGeometry relative="1" as="geometry" />
        </mxCell>
        <mxCell id="soZgtZPzy2yuuwHxE616-24" value="X4" style="rounded=0;whiteSpace=wrap;html=1;" vertex="1" parent="1">
          <mxGeometry x="580" y="400" width="40" height="30" as="geometry" />
        </mxCell>
        <mxCell id="soZgtZPzy2yuuwHxE616-35" style="edgeStyle=orthogonalEdgeStyle;rounded=0;orthogonalLoop=1;jettySize=auto;html=1;exitX=1;exitY=0.5;exitDx=0;exitDy=0;" edge="1" parent="1" source="soZgtZPzy2yuuwHxE616-31">
          <mxGeometry relative="1" as="geometry">
            <mxPoint x="320" y="305" as="targetPoint" />
          </mxGeometry>
        </mxCell>
        <mxCell id="soZgtZPzy2yuuwHxE616-31" value="RNN" style="ellipse;whiteSpace=wrap;html=1;aspect=fixed;" vertex="1" parent="1">
          <mxGeometry x="200" y="265" width="80" height="80" as="geometry" />
        </mxCell>
        <mxCell id="soZgtZPzy2yuuwHxE616-36" style="edgeStyle=orthogonalEdgeStyle;rounded=0;orthogonalLoop=1;jettySize=auto;html=1;exitX=1;exitY=0.5;exitDx=0;exitDy=0;entryX=0;entryY=0.5;entryDx=0;entryDy=0;" edge="1" parent="1" source="soZgtZPzy2yuuwHxE616-32" target="soZgtZPzy2yuuwHxE616-33">
          <mxGeometry relative="1" as="geometry" />
        </mxCell>
        <mxCell id="soZgtZPzy2yuuwHxE616-32" value="RNN" style="ellipse;whiteSpace=wrap;html=1;aspect=fixed;" vertex="1" parent="1">
          <mxGeometry x="320" y="265" width="80" height="80" as="geometry" />
        </mxCell>
        <mxCell id="soZgtZPzy2yuuwHxE616-37" style="edgeStyle=orthogonalEdgeStyle;rounded=0;orthogonalLoop=1;jettySize=auto;html=1;exitX=1;exitY=0.5;exitDx=0;exitDy=0;" edge="1" parent="1" source="soZgtZPzy2yuuwHxE616-33">
          <mxGeometry relative="1" as="geometry">
            <mxPoint x="560" y="305" as="targetPoint" />
          </mxGeometry>
        </mxCell>
        <mxCell id="soZgtZPzy2yuuwHxE616-33" value="RNN" style="ellipse;whiteSpace=wrap;html=1;aspect=fixed;" vertex="1" parent="1">
          <mxGeometry x="440" y="265" width="80" height="80" as="geometry" />
        </mxCell>
        <mxCell id="soZgtZPzy2yuuwHxE616-34" value="RNN" style="ellipse;whiteSpace=wrap;html=1;aspect=fixed;" vertex="1" parent="1">
          <mxGeometry x="560" y="265" width="80" height="80" as="geometry" />
        </mxCell>
      </root>
    </mxGraphModel>
  </diagram>
</mxfile>
